<mxfile host="Electron" modified="2023-06-24T17:50:26.811Z" agent="Mozilla/5.0 (Windows NT 10.0; Win64; x64) AppleWebKit/537.36 (KHTML, like Gecko) draw.io/21.5.0 Chrome/112.0.5615.204 Electron/24.5.1 Safari/537.36" etag="D6lbWwGBgoMU3rrTPOUG" version="21.5.0" type="device">
  <diagram name="Page-1" id="4WF5HXPhoQRd_dmnABzQ">
    <mxGraphModel dx="592" dy="356" grid="1" gridSize="10" guides="1" tooltips="1" connect="1" arrows="1" fold="1" page="1" pageScale="1" pageWidth="583" pageHeight="413" background="none" math="0" shadow="0">
      <root>
        <mxCell id="0" />
        <mxCell id="1" parent="0" />
        <mxCell id="J7DjsNHTybxlWMswNvsN-10" value="" style="rounded=1;whiteSpace=wrap;html=1;arcSize=50;connectable=0;strokeWidth=1;" parent="1" vertex="1">
          <mxGeometry x="160" y="205" width="40" height="70" as="geometry" />
        </mxCell>
        <mxCell id="J7DjsNHTybxlWMswNvsN-12" value="" style="endArrow=none;html=1;rounded=0;strokeWidth=1;" parent="1" edge="1">
          <mxGeometry width="50" height="50" relative="1" as="geometry">
            <mxPoint x="160" y="240" as="sourcePoint" />
            <mxPoint x="200" y="240" as="targetPoint" />
          </mxGeometry>
        </mxCell>
        <mxCell id="J7DjsNHTybxlWMswNvsN-13" value="" style="endArrow=none;html=1;rounded=0;exitX=0.5;exitY=0;exitDx=0;exitDy=0;strokeWidth=1;" parent="1" source="J7DjsNHTybxlWMswNvsN-10" edge="1">
          <mxGeometry width="50" height="50" relative="1" as="geometry">
            <mxPoint x="180" y="232" as="sourcePoint" />
            <mxPoint x="180" y="240" as="targetPoint" />
          </mxGeometry>
        </mxCell>
        <mxCell id="J7DjsNHTybxlWMswNvsN-14" value="" style="rounded=1;whiteSpace=wrap;html=1;arcSize=50;connectable=0;strokeWidth=1;" parent="1" vertex="1">
          <mxGeometry x="177" y="215" width="6" height="17" as="geometry" />
        </mxCell>
        <mxCell id="AuS4_G247xkxnWL5VwZ5-1" value="" style="shape=corner;whiteSpace=wrap;html=1;dx=10;dy=10;fillColor=#999999;strokeColor=none;rotation=45;" parent="1" vertex="1">
          <mxGeometry x="435" y="150" width="30" height="30" as="geometry" />
        </mxCell>
        <mxCell id="AuS4_G247xkxnWL5VwZ5-2" value="" style="shape=corner;whiteSpace=wrap;html=1;dx=10;dy=10;fillColor=#999999;strokeColor=none;rotation=-135;" parent="1" vertex="1">
          <mxGeometry x="435" y="300" width="30" height="30" as="geometry" />
        </mxCell>
        <mxCell id="AuS4_G247xkxnWL5VwZ5-3" value="" style="shape=corner;whiteSpace=wrap;html=1;dx=10;dy=10;fillColor=#999999;strokeColor=none;rotation=135;" parent="1" vertex="1">
          <mxGeometry x="510" y="220" width="30" height="30" as="geometry" />
        </mxCell>
        <mxCell id="AuS4_G247xkxnWL5VwZ5-4" value="" style="shape=corner;whiteSpace=wrap;html=1;dx=10;dy=10;fillColor=#999999;strokeColor=none;rotation=-45;" parent="1" vertex="1">
          <mxGeometry x="360" y="220" width="30" height="30" as="geometry" />
        </mxCell>
        <mxCell id="AuS4_G247xkxnWL5VwZ5-5" value="" style="shape=corner;whiteSpace=wrap;html=1;dx=10;dy=10;fillColor=#E6E6E6;strokeColor=none;rotation=45;" parent="1" vertex="1">
          <mxGeometry x="435" y="130" width="30" height="30" as="geometry" />
        </mxCell>
        <mxCell id="AuS4_G247xkxnWL5VwZ5-6" value="" style="shape=corner;whiteSpace=wrap;html=1;dx=10;dy=10;fillColor=#E6E6E6;strokeColor=none;rotation=135;" parent="1" vertex="1">
          <mxGeometry x="530" y="220" width="30" height="30" as="geometry" />
        </mxCell>
        <mxCell id="AuS4_G247xkxnWL5VwZ5-7" value="" style="shape=corner;whiteSpace=wrap;html=1;dx=10;dy=10;fillColor=#E6E6E6;strokeColor=none;rotation=-135;" parent="1" vertex="1">
          <mxGeometry x="435" y="320" width="30" height="30" as="geometry" />
        </mxCell>
        <mxCell id="AuS4_G247xkxnWL5VwZ5-8" value="" style="shape=corner;whiteSpace=wrap;html=1;dx=10;dy=10;fillColor=#E6E6E6;strokeColor=none;rotation=-45;" parent="1" vertex="1">
          <mxGeometry x="340" y="220" width="30" height="30" as="geometry" />
        </mxCell>
        <mxCell id="AuS4_G247xkxnWL5VwZ5-9" value="" style="rounded=1;whiteSpace=wrap;html=1;arcSize=50;connectable=0;strokeWidth=1;" parent="1" vertex="1">
          <mxGeometry x="430" y="205" width="40" height="70" as="geometry" />
        </mxCell>
        <mxCell id="AuS4_G247xkxnWL5VwZ5-10" value="" style="endArrow=none;html=1;rounded=0;strokeWidth=1;" parent="1" edge="1">
          <mxGeometry width="50" height="50" relative="1" as="geometry">
            <mxPoint x="430" y="240" as="sourcePoint" />
            <mxPoint x="470" y="240" as="targetPoint" />
          </mxGeometry>
        </mxCell>
        <mxCell id="AuS4_G247xkxnWL5VwZ5-11" value="" style="rounded=1;whiteSpace=wrap;html=1;arcSize=50;connectable=0;strokeWidth=1;" parent="1" vertex="1">
          <mxGeometry x="447" y="215" width="6" height="17" as="geometry" />
        </mxCell>
        <mxCell id="AuS4_G247xkxnWL5VwZ5-12" value="" style="shape=corner;whiteSpace=wrap;html=1;dx=10;dy=10;fillColor=#333333;strokeColor=none;rotation=-45;" parent="1" vertex="1">
          <mxGeometry x="380" y="220" width="30" height="30" as="geometry" />
        </mxCell>
        <mxCell id="AuS4_G247xkxnWL5VwZ5-13" value="" style="shape=corner;whiteSpace=wrap;html=1;dx=10;dy=10;fillColor=#333333;strokeColor=none;rotation=135;" parent="1" vertex="1">
          <mxGeometry x="490" y="220" width="30" height="30" as="geometry" />
        </mxCell>
        <mxCell id="AuS4_G247xkxnWL5VwZ5-14" value="" style="shape=corner;whiteSpace=wrap;html=1;dx=10;dy=10;fillColor=#333333;strokeColor=none;rotation=-135;" parent="1" vertex="1">
          <mxGeometry x="435" y="280" width="30" height="30" as="geometry" />
        </mxCell>
        <mxCell id="AuS4_G247xkxnWL5VwZ5-15" value="" style="shape=corner;whiteSpace=wrap;html=1;dx=10;dy=10;fillColor=#333333;strokeColor=none;rotation=45;" parent="1" vertex="1">
          <mxGeometry x="435" y="170" width="30" height="30" as="geometry" />
        </mxCell>
        <mxCell id="AuS4_G247xkxnWL5VwZ5-16" value="" style="endArrow=classic;html=1;rounded=0;strokeColor=#808080;strokeWidth=0.5;endSize=3;startSize=3;" parent="1" edge="1">
          <mxGeometry width="50" height="50" relative="1" as="geometry">
            <mxPoint x="179.8" y="195" as="sourcePoint" />
            <mxPoint x="179.8" y="175" as="targetPoint" />
          </mxGeometry>
        </mxCell>
        <mxCell id="AuS4_G247xkxnWL5VwZ5-17" value="" style="endArrow=classic;html=1;rounded=0;strokeColor=#808080;strokeWidth=0.5;endSize=3;startSize=3;" parent="1" edge="1">
          <mxGeometry width="50" height="50" relative="1" as="geometry">
            <mxPoint x="179.8" y="285" as="sourcePoint" />
            <mxPoint x="179.8" y="305" as="targetPoint" />
          </mxGeometry>
        </mxCell>
        <mxCell id="AuS4_G247xkxnWL5VwZ5-18" value="" style="endArrow=classic;html=1;rounded=0;strokeColor=#808080;strokeWidth=0.5;endSize=3;startSize=3;" parent="1" edge="1">
          <mxGeometry width="50" height="50" relative="1" as="geometry">
            <mxPoint x="210" y="239.8" as="sourcePoint" />
            <mxPoint x="230" y="239.8" as="targetPoint" />
          </mxGeometry>
        </mxCell>
        <mxCell id="AuS4_G247xkxnWL5VwZ5-19" value="" style="endArrow=classic;html=1;rounded=0;strokeColor=#808080;strokeWidth=0.5;endSize=3;startSize=3;" parent="1" edge="1">
          <mxGeometry width="50" height="50" relative="1" as="geometry">
            <mxPoint x="150" y="239.8" as="sourcePoint" />
            <mxPoint x="130" y="239.8" as="targetPoint" />
          </mxGeometry>
        </mxCell>
        <mxCell id="mjfT7CpRyqXp3OrYgjbx-1" value="?g=C1-O233-I336&amp;amp;m=6ff0000-3ffff00-4ff" style="text;html=1;strokeColor=none;fillColor=none;align=left;verticalAlign=middle;whiteSpace=wrap;rounded=0;fontFamily=Courier New;fontStyle=1" vertex="1" parent="1">
          <mxGeometry x="70" y="20" width="300" height="30" as="geometry" />
        </mxCell>
        <mxCell id="mjfT7CpRyqXp3OrYgjbx-4" value="C" style="rounded=0;whiteSpace=wrap;html=1;fontStyle=1;fontSize=16;strokeWidth=0.5;fillColor=none;" vertex="1" parent="1">
          <mxGeometry x="120" y="80" width="20" height="30" as="geometry" />
        </mxCell>
        <mxCell id="mjfT7CpRyqXp3OrYgjbx-5" value="1" style="rounded=0;whiteSpace=wrap;html=1;fontStyle=1;fontSize=16;strokeWidth=0.5;fillColor=none;" vertex="1" parent="1">
          <mxGeometry x="140" y="80" width="20" height="30" as="geometry" />
        </mxCell>
        <mxCell id="mjfT7CpRyqXp3OrYgjbx-6" value="-" style="rounded=0;whiteSpace=wrap;html=1;fontStyle=1;fontSize=16;strokeWidth=0.5;strokeColor=none;fillColor=none;" vertex="1" parent="1">
          <mxGeometry x="160" y="80" width="20" height="30" as="geometry" />
        </mxCell>
        <mxCell id="mjfT7CpRyqXp3OrYgjbx-7" value="O" style="rounded=0;whiteSpace=wrap;html=1;fontStyle=1;fontSize=16;strokeWidth=0.5;fillColor=none;" vertex="1" parent="1">
          <mxGeometry x="180" y="80" width="20" height="30" as="geometry" />
        </mxCell>
        <mxCell id="mjfT7CpRyqXp3OrYgjbx-8" value="2" style="rounded=0;whiteSpace=wrap;html=1;fontStyle=1;fontSize=16;strokeWidth=0.5;fillColor=none;" vertex="1" parent="1">
          <mxGeometry x="200" y="80" width="20" height="30" as="geometry" />
        </mxCell>
        <mxCell id="mjfT7CpRyqXp3OrYgjbx-9" value="33" style="rounded=0;whiteSpace=wrap;html=1;fontStyle=1;fontSize=16;strokeWidth=0.5;fillColor=none;" vertex="1" parent="1">
          <mxGeometry x="220" y="80" width="30" height="30" as="geometry" />
        </mxCell>
        <mxCell id="mjfT7CpRyqXp3OrYgjbx-10" value="-" style="rounded=0;whiteSpace=wrap;html=1;fontStyle=1;fontSize=16;strokeWidth=0.5;strokeColor=none;fillColor=none;" vertex="1" parent="1">
          <mxGeometry x="250" y="80" width="20" height="30" as="geometry" />
        </mxCell>
        <mxCell id="mjfT7CpRyqXp3OrYgjbx-11" value="I" style="rounded=0;whiteSpace=wrap;html=1;fontStyle=1;fontSize=16;strokeWidth=0.5;fillColor=none;" vertex="1" parent="1">
          <mxGeometry x="270" y="80" width="20" height="30" as="geometry" />
        </mxCell>
        <mxCell id="mjfT7CpRyqXp3OrYgjbx-12" value="3" style="rounded=0;whiteSpace=wrap;html=1;fontStyle=1;fontSize=16;strokeWidth=0.5;fillColor=none;" vertex="1" parent="1">
          <mxGeometry x="290" y="80" width="20" height="30" as="geometry" />
        </mxCell>
        <mxCell id="mjfT7CpRyqXp3OrYgjbx-13" value="36" style="rounded=0;whiteSpace=wrap;html=1;fontStyle=1;fontSize=16;strokeWidth=0.5;fillColor=none;" vertex="1" parent="1">
          <mxGeometry x="310" y="80" width="30" height="30" as="geometry" />
        </mxCell>
        <mxCell id="mjfT7CpRyqXp3OrYgjbx-14" value="g =" style="rounded=0;whiteSpace=wrap;html=1;fontStyle=1;fontSize=16;strokeWidth=0.5;fillColor=none;strokeColor=none;align=right;" vertex="1" parent="1">
          <mxGeometry x="80" y="80" width="40" height="30" as="geometry" />
        </mxCell>
        <mxCell id="mjfT7CpRyqXp3OrYgjbx-15" value="m =" style="rounded=0;whiteSpace=wrap;html=1;fontStyle=1;fontSize=16;strokeWidth=0.5;fillColor=none;strokeColor=none;align=right;" vertex="1" parent="1">
          <mxGeometry x="80" y="120" width="40" height="30" as="geometry" />
        </mxCell>
        <mxCell id="mjfT7CpRyqXp3OrYgjbx-16" value="6" style="rounded=0;whiteSpace=wrap;html=1;fontStyle=1;fontSize=16;strokeWidth=0.5;fillColor=none;" vertex="1" parent="1">
          <mxGeometry x="120" y="120" width="20" height="30" as="geometry" />
        </mxCell>
        <mxCell id="mjfT7CpRyqXp3OrYgjbx-17" value="ff0000" style="rounded=0;whiteSpace=wrap;html=1;fontStyle=1;fontSize=16;strokeWidth=0.5;fillColor=none;" vertex="1" parent="1">
          <mxGeometry x="140" y="120" width="60" height="30" as="geometry" />
        </mxCell>
        <mxCell id="mjfT7CpRyqXp3OrYgjbx-18" value="-" style="rounded=0;whiteSpace=wrap;html=1;fontStyle=1;fontSize=16;strokeWidth=0.5;strokeColor=none;fillColor=none;" vertex="1" parent="1">
          <mxGeometry x="200" y="120" width="20" height="30" as="geometry" />
        </mxCell>
        <mxCell id="mjfT7CpRyqXp3OrYgjbx-19" value="3" style="rounded=0;whiteSpace=wrap;html=1;fontStyle=1;fontSize=16;strokeWidth=0.5;fillColor=none;" vertex="1" parent="1">
          <mxGeometry x="220" y="120" width="20" height="30" as="geometry" />
        </mxCell>
        <mxCell id="mjfT7CpRyqXp3OrYgjbx-20" value="ffff00" style="rounded=0;whiteSpace=wrap;html=1;fontStyle=1;fontSize=16;strokeWidth=0.5;fillColor=none;" vertex="1" parent="1">
          <mxGeometry x="240" y="120" width="60" height="30" as="geometry" />
        </mxCell>
        <mxCell id="mjfT7CpRyqXp3OrYgjbx-21" value="-" style="rounded=0;whiteSpace=wrap;html=1;fontStyle=1;fontSize=16;strokeWidth=0.5;strokeColor=none;fillColor=none;" vertex="1" parent="1">
          <mxGeometry x="300" y="120" width="20" height="30" as="geometry" />
        </mxCell>
        <mxCell id="mjfT7CpRyqXp3OrYgjbx-22" value="4" style="rounded=0;whiteSpace=wrap;html=1;fontStyle=1;fontSize=16;strokeWidth=0.5;fillColor=none;" vertex="1" parent="1">
          <mxGeometry x="320" y="120" width="20" height="30" as="geometry" />
        </mxCell>
        <mxCell id="mjfT7CpRyqXp3OrYgjbx-23" value="0000ff" style="rounded=0;whiteSpace=wrap;html=1;fontStyle=1;fontSize=16;strokeWidth=0.5;fillColor=none;" vertex="1" parent="1">
          <mxGeometry x="340" y="120" width="60" height="30" as="geometry" />
        </mxCell>
      </root>
    </mxGraphModel>
  </diagram>
</mxfile>
